<svg fill="#FFFFFF" xmlns="http://www.w3.org/2000/svg"  viewBox="0 0 50 50" width="50px" height="50px"><path d="M 25 2 C 12.317 2 2 12.317 2 25 C 2 37.683 12.317 48 25 48 C 37.683 48 48 37.683 48 25 C 48 12.317 37.683 2 25 2 z M 25 4 C 36.579 4 46 13.421 46 25 C 46 31.198 43.285 36.759422 39 40.607422 L 39 39 C 39 38.447 38.553 38 38 38 C 37.447 38 37 38.447 37 39 L 37 42 C 37 42.064 37.025109 42.120641 37.037109 42.181641 C 36.700109 42.418641 36.351 42.636516 36 42.853516 L 36 36 C 36 35.447 35.553 35 35 35 L 15 35 C 14.447 35 14 35.447 14 36 L 14 42.853516 C 13.649 42.636516 13.299891 42.418641 12.962891 42.181641 C 12.974891 42.120641 13 42.064 13 42 L 13 39 C 13 38.447 12.553 38 12 38 C 11.447 38 11 38.447 11 39 L 11 40.607422 C 6.715 36.759422 4 31.198 4 25 C 4 13.421 13.421 4 25 4 z M 32.382812 6.0058594 C 31.357813 6.1818594 30.491906 6.3214219 29.628906 6.4824219 C 29.357906 6.5334219 29.153687 6.6465469 29.054688 6.8105469 L 29.154297 7.6542969 L 28.386719 7.1523438 C 28.034719 7.3853437 27.511563 7.8208125 27.226562 8.1328125 C 26.755562 8.6478125 26.065109 9.1180781 26.787109 10.080078 C 26.476109 9.9020781 26.329266 9.8179219 26.072266 9.6699219 C 25.795266 10.682922 24.503391 11.309516 25.275391 12.603516 C 25.064391 12.488516 24.872687 12.382344 24.679688 12.277344 C 24.221688 13.150344 24.225578 13.892422 24.642578 14.482422 C 24.485578 14.555422 24.251781 14.586891 24.175781 14.712891 C 23.846781 15.255891 24.191297 16.485766 24.779297 16.884766 C 25.818297 13.736766 27.311047 10.847609 29.498047 8.3496094 C 27.571047 10.987609 25.977219 13.787281 25.199219 16.988281 C 25.208219 16.994281 25.220469 16.993047 25.230469 16.998047 L 17 16.998047 C 15.346 16.998047 14 18.344047 14 19.998047 L 14 29.998047 C 14 31.652047 15.346 32.998047 17 32.998047 L 33 32.998047 C 34.654 32.998047 36 31.652047 36 29.998047 L 36 20 C 36 18.346 34.654 17 33 17 L 26.117188 17 C 26.768187 16.761 27.42625 16.104781 27.53125 15.425781 C 27.39825 15.364781 27.262953 15.303594 27.001953 15.183594 C 28.195953 15.043594 28.528125 14.185047 28.953125 13.373047 C 28.762125 13.242047 28.612328 13.138734 28.486328 13.052734 C 28.870328 12.922734 29.316844 12.884484 29.589844 12.646484 C 29.887844 12.387484 30.025281 11.944359 30.238281 11.568359 C 30.001281 11.432359 29.830156 11.334328 29.660156 11.236328 C 30.723156 11.361328 30.774594 10.455437 31.183594 9.8984375 C 30.984594 9.7484375 30.836484 9.6380938 30.646484 9.4960938 C 31.298484 9.4460937 31.299234 9.4462344 31.490234 8.8652344 C 31.691234 8.2572344 31.892891 7.6510156 32.087891 7.0410156 C 32.175891 6.7650156 32.246813 6.4848594 32.382812 6.0058594 z M 17 19 L 33 19 C 33.552 19 34 19.448 34 20 L 34 30 C 34 30.552 33.552 31 33 31 L 17 31 C 16.448 31 16 30.552 16 30 L 16 20 C 16 19.448 16.448 19 17 19 z M 20 22 A 2 2 0 0 0 20 26 A 2 2 0 0 0 20 22 z M 30 22 A 2 2 0 0 0 30 26 A 2 2 0 0 0 30 22 z M 16 37 L 34 37 L 34 43.945312 C 31.554 45.112313 28.853 45.813219 26 45.949219 L 26 40 C 26 39.447 25.553 39 25 39 L 16 39 L 16 37 z M 30 39 A 2 2 0 0 0 30 43 A 2 2 0 0 0 30 39 z M 16 41 L 24 41 L 24 45.949219 C 21.147 45.814219 18.446 45.110359 16 43.943359 L 16 41 z"/></svg>